<svg width="72" height="72" viewBox="0 0 72 72" fill="none" xmlns="http://www.w3.org/2000/svg">
<g id="Group 25">
<rect id="Rectangle" width="72" height="72" rx="20" fill="#FFDEC7"/>
<g id="House">
<g id="Path">
<path fill-rule="evenodd" clip-rule="evenodd" d="M32.0869 54.0001V45.8262C32.0869 44.7216 32.9823 43.8262 34.0869 43.8262H37.913C39.0176 43.8262 39.913 44.7216 39.913 45.8262V54.0001" fill="#E1F4F5"/>
<path d="M32.0869 54.0001V45.8262C32.0869 44.7216 32.9823 43.8262 34.0869 43.8262H37.913C39.0176 43.8262 39.913 44.7216 39.913 45.8262V54.0001" stroke="#E18D53" stroke-width="2"/>
</g>
<path id="Path_2" fill-rule="evenodd" clip-rule="evenodd" d="M44.6086 54H27.3912C23.9478 54 21.1304 51.1826 21.1304 47.7391V30.987C21.1304 30.692 21.2606 30.4121 21.4862 30.2221L35.3558 18.5424C35.728 18.229 36.2718 18.229 36.6441 18.5424L50.5136 30.2221C50.7393 30.4121 50.8695 30.692 50.8695 30.987V47.7391C50.8695 51.1826 48.0521 54 44.6086 54Z" stroke="#E18D53" stroke-width="2"/>
<g id="Money">
<path id="Path_3" d="M39.2023 28.577C38.2536 28.1108 37.1467 27.8777 36.0399 27.8389C34.3006 27.8389 32.7386 29.0238 32.7386 30.1116C32.7386 31.2382 33.8454 32.1706 36.1118 32.8699C38.6944 33.6858 39.4658 34.3268 39.4658 35.5311C39.4658 37.0851 37.3575 37.901 35.5128 37.901C34.3006 37.901 33.0883 37.629 32.0869 37.124" stroke="#E18D53" stroke-width="2"/>
<path id="Path_4" d="M36.1118 25.8262V39.9131" stroke="#E18D53" stroke-width="2"/>
</g>
</g>
</g>
</svg>
