<svg width="144" height="32" viewBox="0 0 144 32" fill="none" xmlns="http://www.w3.org/2000/svg">
<g id="Group 14">
<g id="Twitter">
<circle id="Oval 1" cx="16" cy="16" r="16" fill="#55ACEE"/>
<path id="Fill 1" fill-rule="evenodd" clip-rule="evenodd" d="M23.3289 9.88039C22.8773 10.1697 21.8404 10.59 21.3291 10.59V10.5909C20.7452 9.9809 19.9231 9.6001 19.0115 9.6001C17.2408 9.6001 15.805 11.0359 15.805 12.8059C15.805 13.0518 15.8335 13.2917 15.8861 13.5217H15.8856C13.4837 13.4587 10.8568 12.2548 9.27541 10.1944C8.30312 11.8773 9.14451 13.749 10.2479 14.431C9.87019 14.4595 9.1749 14.3875 8.84764 14.0682C8.82571 15.1852 9.3628 16.6652 11.3212 17.2021C10.944 17.405 10.2764 17.3468 9.98607 17.3037C10.088 18.2466 11.4084 19.4793 12.8523 19.4793C12.3377 20.0746 10.4014 21.1543 8.22852 20.8108C9.70422 21.7087 11.4241 22.2287 13.2445 22.2287C18.4177 22.2287 22.4352 18.0361 22.219 12.8639C22.2181 12.8582 22.2181 12.8525 22.2176 12.8463C22.2181 12.833 22.219 12.8197 22.219 12.8059C22.219 12.7898 22.2176 12.7746 22.2171 12.7591C22.688 12.437 23.3199 11.8673 23.7714 11.1174C23.5096 11.2616 22.7241 11.5504 21.9933 11.6221C22.4623 11.3689 23.1573 10.5397 23.3289 9.88039Z" fill="white"/>
</g>
<g id="Facebook">
<circle id="Oval 1_2" cx="72" cy="16" r="16" fill="#3B5998"/>
<path id="Fill 4" fill-rule="evenodd" clip-rule="evenodd" d="M69.8006 23.788H72.7147V15.7837H74.9008L75.3332 13.2826H72.7147V11.4702C72.7147 10.886 73.0925 10.2726 73.6324 10.2726H75.1206V7.77148H73.2967V7.7827C70.443 7.88627 69.8567 9.539 69.8059 11.275H69.8006V13.2826H68.3428V15.7837H69.8006V23.788Z" fill="white"/>
</g>
<g id="Linkedin">
<circle id="Oval 1 Copy 5" cx="128" cy="16" r="16" fill="#0976B4"/>
<path id="Fill 182" fill-rule="evenodd" clip-rule="evenodd" d="M121.767 11.8705C122.869 11.8705 123.762 11.0561 123.762 10.0505C123.762 9.04394 122.869 8.22852 121.767 8.22852C120.664 8.22852 119.771 9.04394 119.771 10.0505C119.771 11.0561 120.664 11.8705 121.767 11.8705Z" fill="white"/>
<path id="Fill 183" fill-rule="evenodd" clip-rule="evenodd" d="M120.229 23.5786H123.807V13.2573H120.229V23.5786Z" fill="white"/>
<path id="Fill 184" fill-rule="evenodd" clip-rule="evenodd" d="M128.83 17.8377C128.83 16.6541 129.39 15.4966 130.729 15.4966C132.068 15.4966 132.397 16.6541 132.397 17.8094V23.4464H135.96V17.579C135.96 13.5026 133.55 12.7998 132.068 12.7998C130.587 12.7998 129.77 13.3008 128.83 14.5146V13.1251H125.257V23.4464H128.83V17.8377Z" fill="white"/>
</g>
</g>
</svg>
