<svg width="72" height="72" viewBox="0 0 72 72" fill="none" xmlns="http://www.w3.org/2000/svg">
<g id="Group 29">
<rect id="Rectangle" width="72" height="72" rx="20" fill="#F9D9EA"/>
<g id="Group 28">
<g id="Building">
<g id="Building-2">
<path id="Path" d="M49.3043 21.1309V49.3048C49.3043 51.8874 47.1912 54.0004 44.6086 54.0004H27.3912C24.8086 54.0004 22.6956 51.8874 22.6956 49.3048V21.1309" stroke="#CE5B98" stroke-width="2" stroke-linecap="round"/>
</g>
<rect id="Rectangle_2" x="34.4348" y="27.8262" width="3.13043" height="8.26087" stroke="#CE5B98" stroke-width="2" stroke-linecap="round"/>
<rect id="Rectangle_3" x="27.3914" y="27.8262" width="3.13043" height="8.26087" stroke="#CE5B98" stroke-width="2" stroke-linecap="round"/>
<rect id="Rectangle_4" x="41.4783" y="27.8262" width="3.13043" height="8.26087" stroke="#CE5B98" stroke-width="2" stroke-linecap="round"/>
<g id="Path_2">
<path fill-rule="evenodd" clip-rule="evenodd" d="M32.8694 53.2171V45.6084C32.8694 45.0561 33.3171 44.6084 33.8694 44.6084H38.1303C38.6825 44.6084 39.1303 45.0561 39.1303 45.6084V53.2171" fill="white"/>
<path d="M32.8694 53.2171V45.6084C32.8694 45.0561 33.3171 44.6084 33.8694 44.6084H38.1303C38.6825 44.6084 39.1303 45.0561 39.1303 45.6084V53.2171" stroke="#CE5B98" stroke-width="2" stroke-linecap="round"/>
</g>
<rect id="Rectangle_5" x="21.1304" y="18" width="29.7391" height="3.13043" stroke="#CE5B98" stroke-width="2" stroke-linecap="round"/>
</g>
</g>
</g>
</svg>
