<svg width="24" height="28" viewBox="0 0 24 28" fill="none" xmlns="http://www.w3.org/2000/svg">
<path id="Imported Layers" fill-rule="evenodd" clip-rule="evenodd" d="M17.6887 6.24881C20.9314 6.24881 23.005 9.38633 23.005 9.38633C23.005 9.38633 19.8418 11.1029 19.8418 14.8307C19.8418 19.2553 23.8155 20.5424 23.8155 20.5424C23.8155 20.5424 20.6791 27.9843 17.1573 27.9843C15.1769 27.9843 15.0446 26.845 12.4128 26.845C10.1273 26.845 9.35657 27.9843 7.61554 27.9843C4.29257 27.9843 0 20.7302 0 14.8307C0 8.70276 4.34606 6.24881 7.0704 6.24881C9.46286 6.24881 10.4592 7.65669 12.3861 7.65669C14.0078 7.65669 15.2839 6.24881 17.6887 6.24881ZM17.1312 0C17.6091 3.00357 14.8848 6.71833 11.629 6.5975C11.1504 2.77571 14.6592 0.201619 17.1312 0Z" fill="white"/>
</svg>
