<svg width="82" height="82" viewBox="0 0 82 82" fill="none" xmlns="http://www.w3.org/2000/svg">
<g id="Item">
<rect id="Address: One Apple Park Way Cupertino, CA 95014 - Zoom: 16" width="82" height="82" rx="20" fill="#00D095" fill-opacity="0.1"/>
<g id="bxs-map-pin">
<path id="Path" d="M41 48.5L42.5 45.5V37.787C45.0815 37.1165 47 34.787 47 32C47 28.691 44.309 26 41 26C37.691 26 35 28.691 35 32C35 34.787 36.9185 37.1165 39.5 37.787V45.5L41 48.5Z" fill="#348193"/>
<path id="Path_2" d="M47.4005 38.8443L46.601 41.7363C50.4875 42.8103 53 44.8758 53 46.9998C53 49.8378 48.0725 52.9998 41 52.9998C33.9275 52.9998 29 49.8378 29 46.9998C29 44.8758 31.5125 42.8103 35.4005 41.7348L34.601 38.8428C29.2955 40.3098 26 43.4343 26 46.9998C26 52.0458 32.5895 55.9998 41 55.9998C49.4105 55.9998 56 52.0458 56 46.9998C56 43.4343 52.7045 40.3098 47.4005 38.8443Z" fill="#348193"/>
</g>
</g>
</svg>
