<svg width="172" height="50" viewBox="0 0 172 50" fill="none" xmlns="http://www.w3.org/2000/svg">
<g id="Rectangle 1 + Google Play Icon + Imported Layers + Fill 1">
<g id="Rectangle 1 + Google Play Icon + Imported Layers + Fill 1_2">
<g id="Rectangle 1 + Google Play Icon + Imported Layers">
<path id="Rectangle 1" fill-rule="evenodd" clip-rule="evenodd" d="M10 0C4.47716 0 0 4.47715 0 10V40C0 45.5228 4.47715 50 10 50H162C167.523 50 172 45.5228 172 40V10C172 4.47715 167.523 0 162 0H10Z" fill="black"/>
<g id="Google Play Icon">
<path id="Fill 1" fill-rule="evenodd" clip-rule="evenodd" d="M30.245 20.6374L13.129 11.2883C12.6437 11.0245 12.1961 10.9632 11.8335 11.0755L25.8531 25.0011L30.245 20.6374Z" fill="url(#paint0_linear_0_8222)"/>
<path id="Fill 2" fill-rule="evenodd" clip-rule="evenodd" d="M30.2676 29.3862L36.1107 26.1947C37.2955 25.5452 37.2955 24.4886 36.1107 23.8407L30.246 20.6372L25.8533 25.001L30.2676 29.3862Z" fill="url(#paint1_linear_0_8222)"/>
<path id="Fill 3" fill-rule="evenodd" clip-rule="evenodd" d="M11.8329 11.0752C11.3123 11.237 10.9753 11.7605 10.9753 12.5526L10.9786 37.4824C10.9786 38.2658 11.305 38.7814 11.8104 38.9535L25.8533 25.0032L11.8329 11.0752Z" fill="url(#paint2_linear_0_8222)"/>
<path id="Fill 4" fill-rule="evenodd" clip-rule="evenodd" d="M11.8103 38.9537C12.1753 39.0764 12.6317 39.0191 13.1291 38.7481L30.2651 29.3863L25.8532 25.0034L11.8103 38.9537Z" fill="url(#paint3_linear_0_8222)"/>
<mask id="mask0_0_8222" style="mask-type:luminance" maskUnits="userSpaceOnUse" x="11" y="25" width="20" height="15">
<path id="Fill 4_2" fill-rule="evenodd" clip-rule="evenodd" d="M11.8103 38.9537C12.1753 39.0764 12.6317 39.0191 13.1291 38.7481L30.2651 29.3863L25.8532 25.0034L11.8103 38.9537Z" fill="white"/>
</mask>
<g mask="url(#mask0_0_8222)">
</g>
</g>
</g>
<path id="Fill 1_2" fill-rule="evenodd" clip-rule="evenodd" d="M103.076 30.9049C102.288 30.8308 102.121 30.6841 102.121 29.7412L102.127 15.9755C102.222 15.1261 102.445 14.8607 103.188 14.4248H99.7575L97.9605 15.3009H99.8272L99.8364 29.7318V30.2734C99.8364 30.7117 99.7586 30.8131 99.334 31.3663C99.2889 31.425 99.2399 31.4888 99.1867 31.5587H103.414L104.301 31.0243C104.097 30.9996 103.892 30.9819 103.686 30.9642L103.686 30.9642L103.686 30.9642L103.686 30.9642L103.686 30.9642L103.686 30.9642L103.685 30.9641L103.685 30.9641L103.685 30.9641L103.685 30.9641L103.685 30.9641L103.685 30.9641L103.685 30.9641L103.685 30.9641L103.685 30.9641L103.685 30.9641L103.685 30.9641C103.483 30.9466 103.279 30.9291 103.076 30.9049ZM112.765 31.0243L113.912 29.9289C114.023 29.8167 113.868 29.8987 113.868 29.8987C113.092 30.2864 112.247 30.6625 111.108 30.6625C108.828 30.6625 106.765 28.868 106.167 25.7824L108.014 25.6372L113.654 23.332L113.648 23.3125C113.474 22.7499 113.158 21.7224 111.973 20.9297C111.252 20.4687 110.366 20.25 109.503 20.25C107.033 20.25 104.006 22.0956 104.006 25.8587C104.006 27.6762 104.75 29.762 106.453 30.9754C107.678 31.8723 108.879 31.9226 109.646 31.9226C110.366 31.9226 111.176 31.8306 111.973 31.4645C112.149 31.3834 112.324 31.2803 112.501 31.1769L112.501 31.1768L112.501 31.1767C112.589 31.1251 112.677 31.0734 112.765 31.0243ZM111.206 23.1399C111.206 23.478 110.968 23.6233 110.51 23.7916L106.143 25.7091C106.135 25.5603 106.124 25.4116 106.113 25.2639L106.113 25.2637L106.113 25.2635L106.113 25.2633L106.113 25.2631L106.113 25.2629L106.113 25.2628L106.113 25.2627L106.113 25.262C106.092 24.9776 106.071 24.6971 106.071 24.4281C106.071 21.8057 107.87 21.0505 108.828 21.0505C110.122 21.0505 111.206 22.1704 111.206 23.1399ZM95.5648 21.4411C96.1157 21.8992 97.2652 22.8717 97.2652 24.7158C97.2652 26.5132 96.2636 27.3605 95.2534 28.1624L95.2104 28.2062C94.9109 28.5101 94.581 28.8449 94.581 29.3499C94.581 29.8771 94.93 30.1674 95.1896 30.3834L95.2044 30.3957L96.0709 31.0725C97.1245 31.9723 98.0849 32.7972 98.0849 34.4731C98.0849 36.756 95.9011 39.0583 91.7744 39.0583C88.2983 39.0583 86.6178 37.3832 86.6178 35.5872C86.6178 34.7133 87.0478 33.4755 88.4667 32.6275C89.9342 31.7198 91.9153 31.588 93.0043 31.5156L93.0476 31.5127L92.9974 31.4473C92.6736 31.0263 92.3261 30.5743 92.3261 29.8591C92.3261 29.491 92.4239 29.256 92.5291 29.0035C92.5414 28.9737 92.5539 28.9438 92.5663 28.9133L92.5495 28.9149C92.2928 28.9396 92.0345 28.9644 91.7993 28.9644C89.2551 28.9644 87.817 27.044 87.817 25.1517C87.817 24.0354 88.3203 22.7969 89.3539 21.8992C90.7216 20.7599 92.3524 20.5636 93.6483 20.5636H98.5917L97.0548 21.4411H95.5648ZM93.3128 32.1902C93.5502 32.1902 93.6682 32.1902 93.8651 32.2161C95.6849 33.5287 96.4761 34.1818 96.4761 35.4196C96.4761 36.9236 95.2534 38.0406 92.9502 38.0406C90.3868 38.0406 88.7298 36.7999 88.7298 35.0794C88.7298 33.3554 90.2645 32.775 90.7956 32.5786C91.7993 32.2377 93.0952 32.1902 93.3128 32.1902ZM95.1575 25.8306C95.1575 26.2701 95.1091 27.044 94.5547 27.6043C94.175 27.9884 93.5282 28.284 92.9268 28.284C90.8659 28.284 89.929 25.5882 89.929 23.9627C89.929 23.332 90.0506 22.676 90.4565 22.1704C90.8389 21.682 91.5128 21.3663 92.1348 21.3663C94.1288 21.3663 95.1575 24.085 95.1575 25.8306ZM74.8386 26.1478C74.8386 28.868 76.8788 31.8723 80.6919 31.8723C84.6038 31.8723 86.7869 28.8414 86.7869 25.9766C86.7869 23.0436 84.5783 20.25 81.0516 20.25C77.4034 20.25 74.8386 22.9695 74.8386 26.1478ZM83.6918 29.9088C84.2719 29.132 84.4126 28.1624 84.4126 27.2173C84.4126 25.0797 83.406 21.0031 80.431 21.0031C79.6398 21.0031 78.8429 21.3159 78.2685 21.8266C77.3316 22.676 77.1646 23.7434 77.1646 24.7906C77.1646 27.1886 78.3361 31.1437 81.2435 31.1437C82.1819 31.1437 83.1395 30.6841 83.6918 29.9088ZM67.9253 31.8723C64.1115 31.8723 62.0748 28.868 62.0748 26.1478C62.0748 22.9695 64.6404 20.25 68.2872 20.25C71.8117 20.25 74.0182 23.0436 74.0182 25.9766C74.0182 28.8414 71.838 31.8723 67.9253 31.8723ZM71.6453 27.2173C71.6453 28.1624 71.5017 29.132 70.9259 29.9088C70.3722 30.6841 69.416 31.1437 68.4798 31.1437C65.5773 31.1437 64.4008 27.1886 64.4008 24.7906C64.4008 23.7434 64.5672 22.676 65.5055 21.8266C66.0813 21.3159 66.8697 21.0031 67.6637 21.0031C70.6359 21.0031 71.6453 25.0797 71.6453 27.2173ZM57.334 31.7752L60.55 31.0301V28.2559C60.55 28.0243 60.5721 27.3655 60.5955 27.1584C60.6396 26.9771 60.6609 26.9311 60.818 26.7959L61.4009 26.2284H56.6352L54.8353 27.2065L58.2312 27.0217V30.6899C57.558 30.9632 56.8165 31.2559 55.3763 31.2559C50.4748 31.2559 47.4188 27.231 47.4188 22.9522C47.4188 18.9683 50.0952 16.2395 53.6432 16.2395C56.2911 16.2395 57.6891 17.6209 58.4508 18.3736L58.4558 18.3785L57.8942 19.2841L58.6818 19.1057L60.55 17.3104L60.4801 17.2612C59.983 16.9104 59.1915 16.352 57.5835 15.895C56.5201 15.6015 55.3528 15.421 54.1394 15.421C48.404 15.421 45.0551 19.5149 45.0551 23.9304C45.0551 27.546 47.4188 32.1657 53.6218 32.1657C54.8609 32.1657 56.031 31.9831 57.334 31.7752ZM120.827 30.0325V36.2144H119.614V20.4838H120.827V22.2754C121.618 21.1174 123.062 20.1997 124.74 20.1997C127.749 20.1997 129.776 22.5092 129.776 26.1651C129.776 29.7966 127.749 32.1542 124.74 32.1542C123.156 32.1542 121.737 31.3278 120.827 30.0325ZM124.535 21.308C127.052 21.308 128.472 23.4096 128.472 26.1651C128.472 28.9248 127.052 31.0444 124.535 31.0444C122.972 31.0444 121.477 29.7563 120.827 28.6702V23.6348C121.477 22.5509 122.972 21.308 124.535 21.308ZM132.645 16.1402H131.433V31.8709H132.645V16.1402ZM146.261 35.1974C146.521 35.3146 146.964 35.3865 147.245 35.3865C147.987 35.3865 148.504 35.0794 148.968 33.9948L149.853 31.9658L145.073 20.4838H146.426L150.527 30.4338L154.587 20.4838H155.96L150.13 34.3753C149.525 35.8066 148.573 36.4949 147.266 36.4949C146.874 36.4949 146.356 36.4244 146.053 36.3302L146.261 35.1974ZM142.53 30.8035C142.575 31.0941 142.636 31.4422 142.717 31.8371H144.115C144.007 31.4695 143.925 31.0898 143.874 30.7093C143.824 30.3295 143.805 29.9397 143.805 29.5362V23.9189C143.805 22.7163 143.4 21.7964 142.594 21.1598C141.787 20.5168 140.717 20.1946 139.394 20.1946C138.067 20.1946 136.988 20.5219 136.165 21.1728C135.338 21.8244 134.949 22.5789 134.994 23.4391L135.02 23.5003H136.262C136.262 22.8623 136.544 22.3329 137.104 21.9057C137.669 21.4871 138.411 21.272 139.326 21.272C140.327 21.272 141.099 21.5072 141.649 21.9726C142.197 22.4372 142.472 23.0781 142.472 23.893V25.3077H139.642C138.125 25.3077 136.899 25.6242 135.951 26.2607C135.003 26.8944 134.527 27.723 134.527 28.7436C134.527 29.7656 134.855 30.5733 135.508 31.1696C136.163 31.7666 137.081 32.0607 138.263 32.0607C139.244 32.0607 139.96 31.8608 140.714 31.453C141.467 31.048 142.056 30.5338 142.472 29.9159C142.472 30.2173 142.493 30.5136 142.53 30.8035ZM138.411 30.9423C139.442 30.9423 140.183 30.7093 140.94 30.2482C141.692 29.7901 142.204 29.1924 142.472 28.4688V26.2823H139.628C138.542 26.2823 137.643 26.5254 136.936 27.0159C136.227 27.505 135.868 28.097 135.868 28.7853C135.868 29.4348 136.095 29.9541 136.547 30.3475C137.001 30.7452 137.621 30.9423 138.411 30.9423Z" fill="white"/>
</g>
</g>
<defs>
<linearGradient id="paint0_linear_0_8222" x1="3.52399" y1="9.6082" x2="9.15389" y2="28.66" gradientUnits="userSpaceOnUse">
<stop stop-color="#19A3B4"/>
<stop offset="0.348168" stop-color="#5BC3AF"/>
<stop offset="0.922336" stop-color="#C8F7A6"/>
<stop offset="1" stop-color="#D7FEA5"/>
</linearGradient>
<linearGradient id="paint1_linear_0_8222" x1="11.4819" y1="14.5522" x2="17.9625" y2="35.6185" gradientUnits="userSpaceOnUse">
<stop stop-color="#FC227C"/>
<stop offset="1" stop-color="#FEEB7B"/>
</linearGradient>
<linearGradient id="paint2_linear_0_8222" x1="7.89518" y1="9.73833" x2="17.399" y2="34.4713" gradientUnits="userSpaceOnUse">
<stop stop-color="#0E4DA0"/>
<stop offset="1" stop-color="#6BFED4"/>
</linearGradient>
<linearGradient id="paint3_linear_0_8222" x1="26.08" y1="18.4631" x2="8.37651" y2="38.7445" gradientUnits="userSpaceOnUse">
<stop stop-color="#FC472E"/>
<stop offset="0.00331892" stop-color="#FC472F"/>
<stop offset="1" stop-color="#893CD8"/>
</linearGradient>
</defs>
</svg>
