<svg width="18" height="18" viewBox="0 0 18 18" fill="none" xmlns="http://www.w3.org/2000/svg">
<g id="ruler-fill">
<path id="Path" d="M3.69679 9.90528L5.28754 11.496L6.34804 10.4355L4.75804 8.84479L6.34804 7.25403L8.46979 9.37504L9.53028 8.31454L7.41004 6.19279L9.00004 4.60204L10.5908 6.19279L11.652 5.13229L10.0605 3.54154L12.1823 1.41979C12.4752 1.127 12.9499 1.127 13.2428 1.41979L16.9553 5.13229C17.2481 5.42516 17.2481 5.89991 16.9553 6.19279L5.81779 17.3303C5.52491 17.6231 5.05016 17.6231 4.75729 17.3303L1.04479 13.6178C0.751999 13.3249 0.751999 12.8502 1.04479 12.5573L3.69679 9.90528Z" fill="#64626A"/>
</g>
</svg>
