<svg width="15" height="14" viewBox="0 0 15 14" fill="none" xmlns="http://www.w3.org/2000/svg">
<g id="sink">
<path id="Path" d="M0 7.19531V7.37391C0 10.0074 2.1808 12.1499 4.86135 12.1499H6.18085V12.704C6.18085 13.4185 6.77262 13.9999 7.49997 13.9999C8.22732 13.9999 8.81909 13.4185 8.81909 12.704V12.1499H10.1386C12.8191 12.1499 14.9999 10.0074 14.9999 7.37391V7.19531L0 7.19531Z" fill="#64626A"/>
<path id="Path_2" d="M8.87681 0C7.87529 0 7.06055 0.800481 7.06055 1.7844V6.33178H7.93948V1.7844C7.93948 1.27664 8.35998 0.863544 8.87678 0.863544C9.39357 0.863544 9.81407 1.27667 9.81407 1.7844V2.87786H10.693V1.7844C10.6931 0.800481 9.87829 0 8.87681 0Z" fill="#64626A"/>
<path id="Path_3" d="M9.81409 4.60352V6.33196H10.693V5.46706H12.1505V4.60352H9.81409Z" fill="#64626A"/>
<path id="Path_4" d="M2.84949 4.60352V5.46706H4.30698V6.33196H5.18591V4.60352H2.84949Z" fill="#64626A"/>
</g>
</svg>
