<svg width="20" height="20" viewBox="0 0 20 20" fill="none" xmlns="http://www.w3.org/2000/svg">
<g id="User">
<path id="Path" fill-rule="evenodd" clip-rule="evenodd" d="M13.7174 4.67826C13.7956 2.60435 12.0348 1 9.99999 1C7.96521 1 6.16521 2.64348 6.2826 4.67826C6.32173 5.1087 6.71304 7.14348 6.71304 7.14348C7.02608 8.90435 8.19999 10.3913 9.99999 10.3913C11.8 10.3913 12.9739 8.90435 13.2869 7.10435C13.2869 7.10435 13.6783 5.06957 13.7174 4.67826Z" stroke="black" stroke-width="1.5"/>
<path id="Path_2" fill-rule="evenodd" clip-rule="evenodd" d="M19 19.0001H1L1.43043 15.7914C1.62609 14.7349 2.56522 14.1088 3.62174 13.874L10 12.7393L16.3783 13.874C17.4348 14.1088 18.3739 14.7349 18.5304 15.7914L19 19.0001Z" stroke="black" stroke-width="1.5"/>
</g>
</svg>
